<?xml version="1.0" encoding="utf-8"?>
<!-- Generator: Adobe Illustrator 27.0.0, SVG Export Plug-In . SVG Version: 6.00 Build 0)  -->
<svg version="1.1" id="Capa_1" xmlns="http://www.w3.org/2000/svg" xmlns:xlink="http://www.w3.org/1999/xlink" x="0px" y="0px"
	 viewBox="0 0 566.93 283.46" enable-background="new 0 0 566.93 283.46" xml:space="preserve">
<g>
	<path fill="#5E388D" d="M498.96,142.81c-2.18-2.73-5.16-4.09-8.96-4.09c-2.52,0-4.73,0.56-6.62,1.68c-1.89,1.12-3.43,2.7-4.63,4.74
		c-0.89-2.16-2.21-3.77-3.96-4.83c-1.76-1.06-3.85-1.59-6.27-1.59c-2.4,0-4.54,0.51-6.4,1.53c-1.86,1.02-3.41,2.47-4.63,4.34
		l-0.43-5.15h-11.46v5.93c1.31,2.67,2.62,7.18,2.55,14.58c-0.06,5.29-1.11,9.34-2.55,12.42v6.07h12.18v-27.97
		c0.62-0.74,1.39-1.33,2.29-1.75c0.9-0.42,1.9-0.63,3.01-0.63c1.61,0,2.8,0.52,3.57,1.55c0.77,1.03,1.15,2.96,1.15,5.77v23.04h12.18
		v-26.03c0-0.29-0.01-0.58-0.04-0.88c-0.02-0.3-0.04-0.65-0.04-1.06c0.62-0.74,1.39-1.33,2.29-1.75c0.9-0.42,1.94-0.63,3.12-0.63
		c1.56,0,2.73,0.52,3.51,1.57c0.78,1.05,1.17,2.96,1.17,5.75v23.04h12.22v-23.04C502.22,149.74,501.13,145.54,498.96,142.81z"/>
	<path fill="#5E388D" d="M336,162.46v-6.38c0-5.48-1.45-9.79-4.34-12.94c-2.9-3.15-6.98-4.72-12.24-4.72
		c-3.96-0.02-7.29,0.81-10.02,2.45c0.62,5.57-0.26,13.24-7.44,19.4c-0.33,0.29-0.65,0.53-0.96,0.77c0.21,4.98,1.86,9.15,4.99,12.48
		c3.35,3.58,7.98,5.37,13.9,5.37c3.12,0,6.1-0.42,8.94-1.26s5.1-1.88,6.78-3.1l-2.92-7.42c-1.99,0.84-3.77,1.45-5.32,1.84
		c-1.55,0.39-3.49,0.58-5.82,0.58c-2.47,0-4.37-0.63-5.69-1.89c-1.32-1.26-2.08-2.91-2.27-4.96l0.07-0.22H336z M313.51,154.67
		c0.14-2.11,0.68-3.79,1.6-5.03c0.92-1.24,2.36-1.86,4.31-1.86c1.71,0,2.91,0.52,3.62,1.55s1.06,2.56,1.06,4.58v0.94h-10.53
		L313.51,154.67z"/>
	<path fill="#5E388D" d="M405.27,158.03c0-5.86,1.66-10.64,4.97-14.33c3.32-3.69,7.94-5.53,13.88-5.53c5.96,0,10.6,1.84,13.92,5.53
		c3.32,3.69,4.97,8.47,4.97,14.33v0.76c0,5.89-1.66,10.67-4.97,14.35c-3.32,3.68-7.93,5.52-13.84,5.52
		c-5.98,0-10.63-1.84-13.95-5.52c-3.32-3.68-4.97-8.46-4.97-14.35V158.03z M417.45,158.79c0,3.27,0.51,5.83,1.53,7.7
		c1.02,1.86,2.76,2.79,5.21,2.79c2.38,0,4.09-0.94,5.12-2.81c1.03-1.88,1.55-4.43,1.55-7.68v-0.76c0-3.17-0.52-5.71-1.55-7.62
		c-1.03-1.91-2.76-2.87-5.19-2.87c-2.4,0-4.12,0.96-5.14,2.88c-1.02,1.92-1.53,4.46-1.53,7.6V158.79z"/>
	<path fill="#F59D07" d="M305.95,141.58c-1.33-17.54-12.59-22.53-22.82-21.16l-6.54,0.85l-7.92,1.31
		c-5.21,0.7-10.47,3.42-13.38,7.36c-3.03,3.85-3.73,8.96-3.03,14.17l3.11,23.43c1.38,10.22,4.65,15.54,14.87,14.16
		c10.22-1.38,11.72-7.34,10.35-17.56l-0.02-0.48l-3.61-26.7c0,0,2.84-0.45,5.61-0.86c1.77-0.26,3.45-0.37,4.53,0.26
		c1.63,0.95,2.27,3.52,1.27,5.82c-0.29,0.68-0.86,1.49-3.18,2.03c-0.76,0.18-2.07,0.35-2.87,0.53l2.37,18.36l1.49-0.2
		C299.5,160.05,306.91,154.19,305.95,141.58z"/>
	<path fill="#4DBECD" d="M243.24,115.5c0,0,9.86,10.72,15.66,7.75c7.31-3.73,2.89-15.38,2.89-15.38s-3.02-17.84-17.4-9.12
		C233.13,105.58,243.24,115.5,243.24,115.5z"/>
	<path fill="#EB5B7C" d="M230.55,139.05c0,0,11.59,5.04,16.46-1.53c5.39-7.28-7.64-17.72-7.64-17.72s-12.82-10.52-19,3.96
		C215.52,135.08,230.55,139.05,230.55,139.05z"/>
	<path fill="#5E388D" d="M243.04,162.56c0,0,6.17-2.56,5.93-8.1c-0.27-6.27-9.98-7.64-9.98-7.64s-15.61-3.64-13.06,10.94
		C227.78,168.36,243.04,162.56,243.04,162.56z"/>
	<path fill="#F59D07" d="M266.75,107.8c0,0,0.19,9.47,6.01,10.25c7.5,0.99,9.87-10.06,9.87-10.06s3.78-11.48-7.39-11.52
		C266.5,96.43,266.75,107.8,266.75,107.8z"/>
	<path fill="#5E388D" d="M354.85,172.83c0-1.22,0.25-2.37,0.62-3.46c-0.95-0.01-1.7-0.31-2.26-0.92c-0.56-0.61-0.85-1.62-0.85-3.01
		v-17.88h6.16v-8.44h-6.16v-9.7h-12.18v9.7h-5.44v1.36c1.15,0.9,3.12,4.48,3.45,7.07h1.99v17.95c0,4.64,1.04,8.03,3.12,10.17
		c2.08,2.14,5.12,3.21,9.14,3.21c1.35,0,2.51-0.07,3.5-0.2c0.2-0.03,0.42-0.07,0.63-0.11C355.49,176.93,354.85,174.96,354.85,172.83
		z"/>
	<path fill="#5E388D" d="M391.63,164.02c0,1.71-0.41,3.01-1.23,3.91c-0.82,0.9-2.05,1.35-3.71,1.35c-2.4,0-4.07-0.93-4.99-2.78
		c-0.92-1.85-1.39-4.41-1.39-7.68V158c0-3.19,0.46-5.74,1.39-7.62c0.92-1.89,2.57-2.83,4.92-2.83c1.66,0,2.91,0.58,3.75,1.75
		c0.84,1.17,1.26,2.67,1.26,4.52h11.1l0.07-0.22c0.1-4.78-1.34-8.55-4.31-11.3c-2.97-2.75-6.93-4.13-11.88-4.13
		c-5.91,0-10.47,1.84-13.66,5.52c-3.2,3.68-4.79,8.45-4.79,14.31v0.83c0,1.32,0.09,2.57,0.25,3.78c4.48,1.27,7.78,5.34,7.78,10.22
		c0,0.98-0.17,1.91-0.42,2.81c2.9,2,6.53,3.01,10.92,3.01c4.76,0,8.66-1.34,11.7-4.02c3.04-2.68,4.51-6.15,4.42-10.4l-0.07-0.22
		H391.63z"/>
	<path fill="#5E388D" d="M185.41,162.62v-6.38c0-5.48-1.45-9.79-4.34-12.94c-2.9-3.15-6.98-4.72-12.24-4.72
		c-5.98-0.02-10.56,1.84-13.72,5.59c-1.44,1.71-2.54,3.66-3.32,5.83c0.84,3.95,1.38,9.97-0.15,17.63c0.84,2.26,2.09,4.28,3.76,6.06
		c3.35,3.58,7.98,5.37,13.9,5.37c3.12,0,6.1-0.42,8.94-1.26c2.84-0.84,5.1-1.88,6.78-3.1l-2.92-7.42c-1.99,0.84-3.77,1.45-5.32,1.84
		c-1.55,0.39-3.49,0.58-5.82,0.58c-2.47,0-4.37-0.63-5.69-1.89c-1.32-1.26-2.08-2.91-2.27-4.96l0.07-0.22H185.41z M162.91,154.83
		c0.14-2.11,0.68-3.79,1.6-5.03c0.92-1.24,2.36-1.86,4.31-1.86c1.71,0,2.91,0.52,3.62,1.55s1.06,2.56,1.06,4.58v0.94h-10.53
		L162.91,154.83z"/>
	<path fill="#5E388D" d="M108.34,157.64c0,6.47-2.05,11.79-6.15,15.99c-4.1,4.19-9.45,6.29-16.06,6.29c-6.66,0-12.05-2.1-16.19-6.29
		c-4.13-4.19-6.2-9.52-6.2-15.99v-9.44c0-6.44,2.06-11.76,6.18-15.97c4.12-4.21,9.5-6.31,16.13-6.31c6.58,0,11.94,2.1,16.08,6.31
		c4.13,4.21,6.2,9.53,6.2,15.97V157.64z M96.19,148.12c0-3.75-0.88-6.83-2.65-9.23c-1.77-2.4-4.26-3.61-7.48-3.61
		c-3.29,0-5.81,1.2-7.55,3.59s-2.61,5.47-2.61,9.25v9.52c0,3.8,0.88,6.9,2.65,9.3c1.77,2.41,4.3,3.61,7.59,3.61
		c3.2,0,5.67-1.2,7.43-3.61c1.75-2.4,2.63-5.5,2.63-9.3V148.12z"/>
	<path fill="#5E388D" d="M148.4,159.63c0,5.86-1.32,10.57-3.97,14.11c-2.64,3.55-6.37,5.32-11.17,5.32c-1.87,0-3.54-0.36-4.99-1.08
		c-1.45-0.72-2.72-1.77-3.8-3.14v18.46h-12.18v-54h11.5l0.36,4.25c1.08-1.59,2.37-2.81,3.88-3.68c1.5-0.86,3.23-1.3,5.17-1.3
		c4.83,0,8.57,1.86,11.23,5.59c2.65,3.72,3.98,8.63,3.98,14.71V159.63z M136.25,158.87c0-3.29-0.48-5.94-1.44-7.93
		c-0.96-1.99-2.5-2.99-4.61-2.99c-1.37,0-2.53,0.25-3.48,0.76c-0.95,0.5-1.7,1.24-2.25,2.2v16.29c0.58,0.84,1.34,1.47,2.29,1.88
		c0.95,0.41,2.12,0.61,3.51,0.61c2.14,0,3.67-0.88,4.6-2.65c0.92-1.77,1.39-4.23,1.39-7.41V158.87z"/>
	<circle fill="#5E388D" cx="365.52" cy="172.83" r="6.55"/>
	<path fill="#5E388D" d="M221.69,154.49c0.12-3.82,1.63-6.32,2.57-7.67c-0.55-2.27-0.92-2.94-2.24-4.54c-2.15-2.6-5.78-3.7-9.6-3.7
		c-2.31,0-4.4,0.55-6.27,1.64c-1.87,1.09-3.45,2.61-4.72,4.56l-0.47-5.48h-11.43v39h12.15v-27.72c0.7-0.84,1.56-1.49,2.6-1.95
		c1.03-0.46,2.2-0.68,3.5-0.68c1.51,0,2.67,0.52,3.46,1.57c0.79,1.05,1.19,2.81,1.19,5.28v23.5h12.18l0.18-13.9
		C222.91,162.15,221.54,159.22,221.69,154.49z"/>
</g>
</svg>
